<svg xmlns="http://www.w3.org/2000/svg" version="1.1" xmlns:xlink="http://www.w3.org/1999/xlink" xmlns:svgjs="http://svgjs.dev/svgjs" width="1000" height="673" viewBox="0 0 1000 673"><g transform="matrix(1,0,0,1,-0.014674970211558502,0.2724696356274876)"><svg viewBox="0 0 367 247" data-background-color="#ffffff" preserveAspectRatio="xMidYMid meet" height="673" width="1000" xmlns="http://www.w3.org/2000/svg" xmlns:xlink="http://www.w3.org/1999/xlink"><g id="tight-bounds" transform="matrix(1,0,0,1,0.005385714067642766,-0.09999999999999432)"><svg viewBox="0 0 366.9892285718647 247.2" height="247.2" width="366.9892285718647"><g><svg viewBox="0 0 397.4975999999999 267.75011109286055" height="247.2" width="366.9892285718647"><g><rect width="397.4975999999999" height="7.659185588780434" x="0" y="137.42517806573218" fill="#000000" opacity="1" stroke-width="0" stroke="transparent" fill-opacity="1" class="rect-o-0" data-fill-palette-color="primary" rx="1%" id="o-0" data-palette-color="#000000"></rect></g><g><rect width="397.4975999999999" height="7.659185588780434" x="0" y="155.10947568171213" fill="#000000" opacity="1" stroke-width="0" stroke="transparent" fill-opacity="1" class="rect-o-1" data-fill-palette-color="primary" rx="1%" id="o-1" data-palette-color="#000000"></rect></g><g transform="matrix(1,0,0,1,0.9887999999999693,182.81888532489162)"><svg viewBox="0 0 395.52 84.93122576796897" height="84.93122576796897" width="395.52"><g id="textblocktransform"><svg viewBox="0 0 395.52 84.93122576796897" height="84.93122576796897" width="395.52" id="textblock"><g><svg viewBox="0 0 395.52 84.93122576796897" height="84.93122576796897" width="395.52"><g transform="matrix(1,0,0,1,0,0)"><svg width="395.52" viewBox="3.5 -35.5 167.63999938964844 36" height="84.93122576796897" data-palette-color="#000000"><path d="M11.05 0L4.75 0Q4.2 0 3.85-0.38 3.5-0.75 3.5-1.25L3.5-1.25 3.5-33.75Q3.5-34.3 3.85-34.65 4.2-35 4.75-35L4.75-35 27.75-35Q28.3-35 28.65-34.65 29-34.3 29-33.75L29-33.75 29-28.7Q29-28.15 28.65-27.8 28.3-27.45 27.75-27.45L27.75-27.45 12.3-27.45 12.3-20.1 26.75-20.1Q27.3-20.1 27.65-19.73 28-19.35 28-18.8L28-18.8 28-13.8Q28-13.3 27.65-12.93 27.3-12.55 26.75-12.55L26.75-12.55 12.3-12.55 12.3-1.25Q12.3-0.75 11.95-0.38 11.6 0 11.05 0L11.05 0ZM48.7 0.5L48.7 0.5Q44.1 0.5 40.7-1 37.3-2.5 35.4-5.53 33.5-8.55 33.3-13.1L33.3-13.1Q33.25-15.25 33.25-17.43 33.25-19.6 33.3-21.75L33.3-21.75Q33.5-26.25 35.42-29.33 37.35-32.4 40.77-33.95 44.2-35.5 48.7-35.5L48.7-35.5Q53.25-35.5 56.65-33.95 60.05-32.4 62-29.33 63.95-26.25 64.1-21.75L64.1-21.75Q64.2-19.6 64.2-17.43 64.2-15.25 64.1-13.1L64.1-13.1Q63.95-8.55 62.02-5.53 60.1-2.5 56.7-1 53.3 0.5 48.7 0.5ZM48.7-6.7L48.7-6.7Q51.35-6.7 53.02-8.3 54.7-9.9 54.8-13.4L54.8-13.4Q54.9-15.6 54.9-17.55 54.9-19.5 54.8-21.6L54.8-21.6Q54.7-23.95 53.92-25.43 53.15-26.9 51.8-27.6 50.45-28.3 48.7-28.3L48.7-28.3Q47-28.3 45.65-27.6 44.3-26.9 43.5-25.43 42.7-23.95 42.6-21.6L42.6-21.6Q42.55-19.5 42.55-17.55 42.55-15.6 42.6-13.4L42.6-13.4Q42.75-9.9 44.42-8.3 46.1-6.7 48.7-6.7ZM84.3 0.5L84.3 0.5Q79.7 0.5 76.3-1 72.9-2.5 71-5.53 69.09-8.55 68.9-13.1L68.9-13.1Q68.84-15.25 68.84-17.43 68.84-19.6 68.9-21.75L68.9-21.75Q69.09-26.25 71.02-29.33 72.95-32.4 76.37-33.95 79.8-35.5 84.3-35.5L84.3-35.5Q88.84-35.5 92.25-33.95 95.65-32.4 97.59-29.33 99.55-26.25 99.7-21.75L99.7-21.75Q99.8-19.6 99.8-17.43 99.8-15.25 99.7-13.1L99.7-13.1Q99.55-8.55 97.62-5.53 95.7-2.5 92.3-1 88.9 0.5 84.3 0.5ZM84.3-6.7L84.3-6.7Q86.95-6.7 88.62-8.3 90.3-9.9 90.4-13.4L90.4-13.4Q90.5-15.6 90.5-17.55 90.5-19.5 90.4-21.6L90.4-21.6Q90.3-23.95 89.52-25.43 88.75-26.9 87.4-27.6 86.05-28.3 84.3-28.3L84.3-28.3Q82.59-28.3 81.25-27.6 79.9-26.9 79.09-25.43 78.3-23.95 78.2-21.6L78.2-21.6Q78.15-19.5 78.15-17.55 78.15-15.6 78.2-13.4L78.2-13.4Q78.34-9.9 80.02-8.3 81.7-6.7 84.3-6.7ZM120.09 0L106.84 0Q106.29 0 105.94-0.38 105.59-0.75 105.59-1.25L105.59-1.25 105.59-33.75Q105.59-34.3 105.94-34.65 106.29-35 106.84-35L106.84-35 119.84-35Q124.74-35 128.19-33.43 131.64-31.85 133.49-28.83 135.34-25.8 135.49-21.35L135.49-21.35Q135.54-19.15 135.54-17.5 135.54-15.85 135.49-13.7L135.49-13.7Q135.29-9.05 133.52-6 131.74-2.95 128.37-1.48 124.99 0 120.09 0L120.09 0ZM114.59-27.8L114.59-7.2 119.84-7.2Q121.99-7.2 123.42-7.88 124.84-8.55 125.57-10 126.29-11.45 126.34-13.8L126.34-13.8Q126.44-15.25 126.47-16.4 126.49-17.55 126.47-18.7 126.44-19.85 126.34-21.25L126.34-21.25Q126.24-24.65 124.57-26.23 122.89-27.8 119.59-27.8L119.59-27.8 114.59-27.8ZM158.14 0L151.64 0Q151.14 0 150.77-0.38 150.39-0.75 150.39-1.25L150.39-1.25 150.39-12 138.79-33.4Q138.74-33.55 138.69-33.68 138.64-33.8 138.64-33.95L138.64-33.95Q138.64-34.35 138.97-34.68 139.29-35 139.74-35L139.74-35 145.99-35Q146.74-35 147.17-34.63 147.59-34.25 147.74-33.95L147.74-33.95 154.89-21.05 162.09-33.95Q162.24-34.25 162.67-34.63 163.09-35 163.84-35L163.84-35 170.09-35Q170.54-35 170.84-34.68 171.14-34.35 171.14-33.95L171.14-33.95Q171.14-33.8 171.12-33.68 171.09-33.55 171.04-33.4L171.04-33.4 159.44-12 159.44-1.25Q159.44-0.75 159.07-0.38 158.69 0 158.14 0L158.14 0Z" opacity="1" transform="matrix(1,0,0,1,0,0)" fill="#000000" class="wordmark-text-0" data-fill-palette-color="primary" id="text-0"></path></svg></g></svg></g></svg></g></svg></g><g transform="matrix(1,0,0,1,140.06058140853483,0)"><svg viewBox="0 0 117.37643718293027 117.37495401133313" height="117.37495401133313" width="117.37643718293027"><g><svg xmlns="http://www.w3.org/2000/svg" xmlns:xlink="http://www.w3.org/1999/xlink" version="1.1" x="0" y="0" viewBox="0 0 32.000404357910156 32" enable-background="new 0 0 32 32" xml:space="preserve" width="117.37643718293027" height="117.37495401133313" class="icon-icon-0" data-fill-palette-color="accent" id="icon-0"><g fill="#000000" data-fill-palette-color="accent"><path fill="#000000" d="M29.5 21h-2.691c-0.045-0.239-0.1-0.473-0.16-0.706l4.799-2.399c0.494-0.247 0.693-0.848 0.447-1.342-0.248-0.494-0.846-0.692-1.342-0.447l-4.578 2.288C24.229 14.626 20.42 12 16 12c-5.382 0-9.865 3.888-10.809 9H2.5C1.122 21 0 22.121 0 23.5c0 0.49 0.18 0.963 0.505 1.329L4 28.761V29.5C4 30.879 5.122 32 6.5 32h19c1.379 0 2.5-1.121 2.5-2.5v-0.739l3.494-3.932C31.82 24.463 32 23.99 32 23.5 32 22.121 30.879 21 29.5 21zM25.799 21h-0.562l0.498-0.25C25.754 20.834 25.781 20.915 25.799 21zM16 13c4.029 0 7.5 2.4 9.082 5.841l-0.891 0.445C22.775 16.171 19.645 14 16 14c-4.282 0-7.859 2.993-8.77 7H6.202C7.131 16.441 11.171 13 16 13zM20.576 21c-0.773-1.763-2.531-3-4.576-3s-3.802 1.237-4.576 3H10.35c0.826-2.326 3.043-4 5.65-4 2.465 0 4.588 1.496 5.508 3.627L20.764 21H20.576zM16 20c-0.883 0-1.67 0.391-2.22 1h-1.224c0.694-1.189 1.97-2 3.444-2 1.473 0 2.75 0.811 3.443 2h-1.225C17.67 20.391 16.883 20 16 20zM16 16c-3.165 0-5.842 2.112-6.705 5H8.263c0.892-3.444 4.017-6 7.737-6 3.246 0 6.043 1.948 7.295 4.734l-0.893 0.446C21.314 17.723 18.855 16 16 16zM26 28v1.5c0 0.276-0.225 0.5-0.5 0.5h-19C6.224 30 6 29.776 6 29.5V28l-4-4.5C2 23.224 2.224 23 2.5 23H5h1 1 1 1 1 1 1 1 6 1 1 1 1 1 1 1 1 2.5c0.275 0 0.5 0.224 0.5 0.5L26 28z" data-fill-palette-color="accent"></path><path fill="#000000" d="M7.977 11.712c0.003 0.006 0.005 0.012 0.008 0.018 0 0 0.001 0 0.002 0C8.07 11.89 8.236 12 8.43 12c0.277 0 0.502-0.226 0.502-0.503 0-0.043-0.007-0.085-0.018-0.125 0.002-0.007 0.002-0.013 0-0.02-0.375-0.882-0.019-1.85 0.419-2.892 0.473-1.126 0.98-2.376 0.422-3.647C9.684 4.63 9.507 4.5 9.299 4.5c-0.271 0-0.49 0.22-0.49 0.49 0 0.06 0.012 0.116 0.032 0.169 0 0.002 0 0.004 0.001 0.006 0.001 0.003 0.002 0.006 0.003 0.009C8.847 5.178 8.848 5.182 8.85 5.186c0.404 0.909 0.013 1.841-0.428 2.893C7.956 9.188 7.44 10.417 7.959 11.67 7.965 11.685 7.97 11.698 7.977 11.712z" data-fill-palette-color="accent"></path><path fill="#000000" d="M20.154 11.566c0.004 0.006 0.006 0.012 0.008 0.018h0.002c0.084 0.16 0.25 0.271 0.443 0.271 0.277 0 0.504-0.226 0.504-0.503 0-0.043-0.008-0.085-0.018-0.125 0.002-0.007 0.002-0.013-0.002-0.02-0.373-0.882-0.018-1.85 0.42-2.892 0.473-1.126 0.98-2.376 0.422-3.647-0.072-0.184-0.248-0.313-0.457-0.313-0.27 0-0.49 0.22-0.49 0.49 0 0.06 0.014 0.116 0.033 0.169 0 0.002 0 0.004 0 0.006 0.002 0.003 0.002 0.006 0.004 0.009 0.002 0.004 0.004 0.008 0.004 0.012 0.404 0.909 0.014 1.841-0.428 2.893-0.465 1.109-0.98 2.339-0.461 3.592C20.143 11.539 20.148 11.553 20.154 11.566z" data-fill-palette-color="accent"></path><path fill="#000000" d="M15.019 7.212c0.003 0.006 0.005 0.012 0.008 0.018 0 0 0.001 0 0.002 0 0.084 0.16 0.25 0.271 0.443 0.271 0.277 0 0.502-0.226 0.502-0.503 0-0.043-0.007-0.085-0.018-0.125 0.002-0.007 0.002-0.013 0-0.02-0.375-0.882-0.019-1.85 0.419-2.892 0.473-1.126 0.98-2.376 0.422-3.647C16.725 0.13 16.549 0 16.34 0c-0.27 0-0.49 0.22-0.49 0.49 0 0.06 0.012 0.116 0.032 0.169 0 0.002 0 0.004 0.001 0.006 0.001 0.003 0.002 0.006 0.003 0.009 0.001 0.004 0.003 0.008 0.004 0.012 0.404 0.909 0.013 1.841-0.428 2.893-0.466 1.109-0.982 2.339-0.462 3.592C15.007 7.185 15.012 7.198 15.019 7.212z" data-fill-palette-color="accent"></path></g></svg></g></svg></g><g></g></svg></g><defs></defs></svg><rect width="366.9892285718647" height="247.2" fill="none" stroke="none" visibility="hidden"></rect></g></svg></g></svg>